<svg width="1680" height="400" viewBox="0 0 1680 400" fill="none" xmlns="http://www.w3.org/2000/svg">
<g clip-path="url(#clip0_337_19)">
<rect width="1680" height="400" fill="white"/>
<path d="M1680 1050H0V0H1680V1050Z" fill="#FF9C9C"/>
<path d="M-462 236L-443.924 251.185C-425.847 266.37 -389.694 296.741 -353.542 305.852C-317.389 314.963 -281.236 302.815 -245.083 311.926C-208.931 321.037 -172.778 351.407 -136.625 354.444C-100.472 357.481 -64.3194 333.185 -28.1666 333.185C7.98616 333.185 44.1389 357.481 80.2917 351.407C116.444 345.333 152.597 308.889 188.75 290.667C224.903 272.444 261.056 272.444 297.208 278.519C333.361 284.593 369.514 296.741 405.667 308.889C441.82 321.037 477.972 333.185 514.125 327.111C550.278 321.037 586.431 296.741 622.583 287.63C658.736 278.519 694.889 284.593 731.042 287.63C767.194 290.667 803.347 290.667 839.5 299.778C875.653 308.889 911.806 327.111 947.959 318C984.111 308.889 1020.26 272.444 1056.42 254.222C1092.57 236 1128.72 236 1164.88 245.111C1201.03 254.222 1237.18 272.444 1273.33 272.444C1309.49 272.444 1345.64 254.222 1381.79 254.222C1417.94 254.222 1454.1 272.444 1490.25 296.741C1526.4 321.037 1562.56 351.407 1598.71 339.259C1634.86 327.111 1671.01 272.444 1707.17 260.296C1743.32 248.148 1779.47 278.519 1815.63 302.815C1851.78 327.111 1887.93 345.333 1924.08 351.407C1960.24 357.481 1996.39 351.407 2032.54 330.148C2068.69 308.889 2104.85 272.444 2122.92 254.222L2141 236V400H2122.92C2104.85 400 2068.69 400 2032.54 400C1996.39 400 1960.24 400 1924.08 400C1887.93 400 1851.78 400 1815.63 400C1779.47 400 1743.32 400 1707.17 400C1671.01 400 1634.86 400 1598.71 400C1562.56 400 1526.4 400 1490.25 400C1454.1 400 1417.94 400 1381.79 400C1345.64 400 1309.49 400 1273.33 400C1237.18 400 1201.03 400 1164.88 400C1128.72 400 1092.57 400 1056.42 400C1020.26 400 984.111 400 947.959 400C911.806 400 875.653 400 839.5 400C803.347 400 767.194 400 731.042 400C694.889 400 658.736 400 622.583 400C586.431 400 550.278 400 514.125 400C477.972 400 441.82 400 405.667 400C369.514 400 333.361 400 297.208 400C261.056 400 224.903 400 188.75 400C152.597 400 116.444 400 80.2917 400C44.1389 400 7.98616 400 -28.1666 400C-64.3194 400 -100.472 400 -136.625 400C-172.778 400 -208.931 400 -245.083 400C-281.236 400 -317.389 400 -353.542 400C-389.694 400 -425.847 400 -443.924 400H-462V236Z" fill="#73E499"/>
<g style="mix-blend-mode:exclusion">
<path d="M616.49 313.84C612.897 313.84 609.723 313.233 606.97 312.02C604.217 310.76 602.047 308.987 600.46 306.7C598.873 304.367 598.057 301.543 598.01 298.23H607.46C607.553 300.517 608.37 302.453 609.91 304.04C611.497 305.58 613.667 306.35 616.42 306.35C618.8 306.35 620.69 305.79 622.09 304.67C623.49 303.503 624.19 301.963 624.19 300.05C624.19 298.043 623.56 296.48 622.3 295.36C621.087 294.24 619.453 293.33 617.4 292.63C615.347 291.93 613.153 291.183 610.82 290.39C607.04 289.083 604.147 287.403 602.14 285.35C600.18 283.297 599.2 280.567 599.2 277.16C599.153 274.267 599.83 271.793 601.23 269.74C602.677 267.64 604.637 266.03 607.11 264.91C609.583 263.743 612.43 263.16 615.65 263.16C618.917 263.16 621.787 263.743 624.26 264.91C626.78 266.077 628.74 267.71 630.14 269.81C631.587 271.91 632.357 274.407 632.45 277.3H622.86C622.813 275.573 622.137 274.057 620.83 272.75C619.57 271.397 617.797 270.72 615.51 270.72C613.55 270.673 611.893 271.163 610.54 272.19C609.233 273.17 608.58 274.617 608.58 276.53C608.58 278.163 609.093 279.47 610.12 280.45C611.147 281.383 612.547 282.177 614.32 282.83C616.093 283.483 618.123 284.183 620.41 284.93C622.837 285.77 625.053 286.75 627.06 287.87C629.067 288.99 630.677 290.483 631.89 292.35C633.103 294.17 633.71 296.527 633.71 299.42C633.71 301.987 633.057 304.367 631.75 306.56C630.443 308.753 628.507 310.527 625.94 311.88C623.373 313.187 620.223 313.84 616.49 313.84ZM641.318 328.4V278.28H649.298L650.278 283.25C651.398 281.71 652.868 280.357 654.688 279.19C656.554 278.023 658.958 277.44 661.898 277.44C665.164 277.44 668.081 278.233 670.648 279.82C673.214 281.407 675.244 283.577 676.738 286.33C678.231 289.083 678.978 292.21 678.978 295.71C678.978 299.21 678.231 302.337 676.738 305.09C675.244 307.797 673.214 309.943 670.648 311.53C668.081 313.07 665.164 313.84 661.898 313.84C659.284 313.84 656.998 313.35 655.038 312.37C653.078 311.39 651.491 310.013 650.278 308.24V328.4H641.318ZM660.008 306C662.854 306 665.211 305.043 667.078 303.13C668.944 301.217 669.878 298.743 669.878 295.71C669.878 292.677 668.944 290.18 667.078 288.22C665.211 286.26 662.854 285.28 660.008 285.28C657.114 285.28 654.734 286.26 652.868 288.22C651.048 290.133 650.138 292.607 650.138 295.64C650.138 298.673 651.048 301.17 652.868 303.13C654.734 305.043 657.114 306 660.008 306ZM703.642 313.84C700.282 313.84 697.248 313.07 694.542 311.53C691.882 309.99 689.758 307.867 688.172 305.16C686.632 302.407 685.862 299.233 685.862 295.64C685.862 292.047 686.655 288.897 688.242 286.19C689.828 283.437 691.952 281.29 694.612 279.75C697.318 278.21 700.352 277.44 703.712 277.44C707.025 277.44 710.012 278.21 712.672 279.75C715.378 281.29 717.502 283.437 719.042 286.19C720.628 288.897 721.422 292.047 721.422 295.64C721.422 299.233 720.628 302.407 719.042 305.16C717.502 307.867 715.378 309.99 712.672 311.53C709.965 313.07 706.955 313.84 703.642 313.84ZM703.642 306.07C705.975 306.07 708.005 305.207 709.732 303.48C711.458 301.707 712.322 299.093 712.322 295.64C712.322 292.187 711.458 289.597 709.732 287.87C708.005 286.097 705.998 285.21 703.712 285.21C701.332 285.21 699.278 286.097 697.552 287.87C695.872 289.597 695.032 292.187 695.032 295.64C695.032 299.093 695.872 301.707 697.552 303.48C699.278 305.207 701.308 306.07 703.642 306.07ZM743.536 313C739.896 313 736.979 312.113 734.786 310.34C732.592 308.567 731.496 305.417 731.496 300.89V285.77H725.546V278.28H731.496L732.546 268.97H740.456V278.28H749.836V285.77H740.456V300.96C740.456 302.64 740.806 303.807 741.506 304.46C742.252 305.067 743.512 305.37 745.286 305.37H749.626V313H743.536ZM762.359 272.89C760.725 272.89 759.372 272.4 758.299 271.42C757.272 270.44 756.759 269.203 756.759 267.71C756.759 266.217 757.272 265.003 758.299 264.07C759.372 263.09 760.725 262.6 762.359 262.6C763.992 262.6 765.322 263.09 766.349 264.07C767.422 265.003 767.959 266.217 767.959 267.71C767.959 269.203 767.422 270.44 766.349 271.42C765.322 272.4 763.992 272.89 762.359 272.89ZM757.879 313V278.28H766.839V313H757.879ZM777.801 313V285.77H773.041V278.28H777.801V274.22C777.801 270.02 778.851 267.033 780.951 265.26C783.097 263.487 785.991 262.6 789.631 262.6H793.481V270.23H791.031C789.491 270.23 788.394 270.533 787.741 271.14C787.087 271.747 786.761 272.773 786.761 274.22V278.28H794.251V285.77H786.761V313H777.801ZM805.687 328.4L813.737 310.69H811.637L798.127 278.28H807.857L817.587 302.71L827.737 278.28H837.257L815.207 328.4H805.687ZM882.194 313.84C877.247 313.84 873.001 312.79 869.454 310.69C865.907 308.543 863.177 305.58 861.264 301.8C859.351 297.973 858.394 293.563 858.394 288.57C858.394 283.577 859.351 279.167 861.264 275.34C863.177 271.513 865.907 268.527 869.454 266.38C873.001 264.233 877.247 263.16 882.194 263.16C888.074 263.16 892.881 264.63 896.614 267.57C900.394 270.463 902.751 274.547 903.684 279.82H893.814C893.207 277.16 891.901 275.083 889.894 273.59C887.934 272.05 885.321 271.28 882.054 271.28C877.527 271.28 873.981 272.82 871.414 275.9C868.847 278.98 867.564 283.203 867.564 288.57C867.564 293.937 868.847 298.16 871.414 301.24C873.981 304.273 877.527 305.79 882.054 305.79C885.321 305.79 887.934 305.09 889.894 303.69C891.901 302.243 893.207 300.26 893.814 297.74H903.684C902.751 302.78 900.394 306.723 896.614 309.57C892.881 312.417 888.074 313.84 882.194 313.84ZM928.065 313.84C924.705 313.84 921.672 313.07 918.965 311.53C916.305 309.99 914.182 307.867 912.595 305.16C911.055 302.407 910.285 299.233 910.285 295.64C910.285 292.047 911.079 288.897 912.665 286.19C914.252 283.437 916.375 281.29 919.035 279.75C921.742 278.21 924.775 277.44 928.135 277.44C931.449 277.44 934.435 278.21 937.095 279.75C939.802 281.29 941.925 283.437 943.465 286.19C945.052 288.897 945.845 292.047 945.845 295.64C945.845 299.233 945.052 302.407 943.465 305.16C941.925 307.867 939.802 309.99 937.095 311.53C934.389 313.07 931.379 313.84 928.065 313.84ZM928.065 306.07C930.399 306.07 932.429 305.207 934.155 303.48C935.882 301.707 936.745 299.093 936.745 295.64C936.745 292.187 935.882 289.597 934.155 287.87C932.429 286.097 930.422 285.21 928.135 285.21C925.755 285.21 923.702 286.097 921.975 287.87C920.295 289.597 919.455 292.187 919.455 295.64C919.455 299.093 920.295 301.707 921.975 303.48C923.702 305.207 925.732 306.07 928.065 306.07ZM953.857 313V278.28H961.767L962.467 284.16C963.54 282.107 965.08 280.473 967.087 279.26C969.14 278.047 971.543 277.44 974.297 277.44C978.59 277.44 981.927 278.793 984.307 281.5C986.687 284.207 987.877 288.173 987.877 293.4V313H978.917V294.24C978.917 291.253 978.31 288.967 977.097 287.38C975.883 285.793 973.993 285 971.427 285C968.907 285 966.83 285.887 965.197 287.66C963.61 289.433 962.817 291.907 962.817 295.08V313H953.857ZM1011.91 313C1008.27 313 1005.36 312.113 1003.16 310.34C1000.97 308.567 999.875 305.417 999.875 300.89V285.77H993.925V278.28H999.875L1000.92 268.97H1008.83V278.28H1018.21V285.77H1008.83V300.96C1008.83 302.64 1009.18 303.807 1009.88 304.46C1010.63 305.067 1011.89 305.37 1013.66 305.37H1018V313H1011.91ZM1041.89 313.84C1038.39 313.84 1035.29 313.093 1032.58 311.6C1029.87 310.107 1027.75 308.007 1026.21 305.3C1024.67 302.593 1023.9 299.467 1023.9 295.92C1023.9 292.327 1024.65 289.13 1026.14 286.33C1027.68 283.53 1029.78 281.36 1032.44 279.82C1035.15 278.233 1038.32 277.44 1041.96 277.44C1045.37 277.44 1048.38 278.187 1050.99 279.68C1053.6 281.173 1055.63 283.227 1057.08 285.84C1058.57 288.407 1059.32 291.277 1059.32 294.45C1059.32 294.963 1059.3 295.5 1059.25 296.06C1059.25 296.62 1059.23 297.203 1059.18 297.81H1032.79C1032.98 300.517 1033.91 302.64 1035.59 304.18C1037.32 305.72 1039.39 306.49 1041.82 306.49C1043.64 306.49 1045.16 306.093 1046.37 305.3C1047.63 304.46 1048.56 303.387 1049.17 302.08H1058.27C1057.62 304.273 1056.52 306.28 1054.98 308.1C1053.49 309.873 1051.62 311.273 1049.38 312.3C1047.19 313.327 1044.69 313.84 1041.89 313.84ZM1041.96 284.72C1039.77 284.72 1037.83 285.35 1036.15 286.61C1034.47 287.823 1033.4 289.69 1032.93 292.21H1050.22C1050.08 289.923 1049.24 288.103 1047.7 286.75C1046.16 285.397 1044.25 284.72 1041.96 284.72ZM1081.2 313.84C1078.12 313.84 1075.42 313.35 1073.08 312.37C1070.75 311.343 1068.88 309.943 1067.48 308.17C1066.08 306.397 1065.24 304.343 1064.96 302.01H1073.99C1074.27 303.363 1075.02 304.53 1076.23 305.51C1077.49 306.443 1079.1 306.91 1081.06 306.91C1083.02 306.91 1084.45 306.513 1085.33 305.72C1086.27 304.927 1086.73 304.017 1086.73 302.99C1086.73 301.497 1086.08 300.493 1084.77 299.98C1083.47 299.42 1081.65 298.883 1079.31 298.37C1077.82 298.043 1076.3 297.647 1074.76 297.18C1073.22 296.713 1071.8 296.13 1070.49 295.43C1069.23 294.683 1068.21 293.75 1067.41 292.63C1066.62 291.463 1066.22 290.04 1066.22 288.36C1066.22 285.28 1067.44 282.69 1069.86 280.59C1072.34 278.49 1075.79 277.44 1080.22 277.44C1084.33 277.44 1087.6 278.397 1090.02 280.31C1092.5 282.223 1093.97 284.86 1094.43 288.22H1085.96C1085.45 285.653 1083.51 284.37 1080.15 284.37C1078.47 284.37 1077.17 284.697 1076.23 285.35C1075.35 286.003 1074.9 286.82 1074.9 287.8C1074.9 288.827 1075.58 289.643 1076.93 290.25C1078.29 290.857 1080.08 291.417 1082.32 291.93C1084.75 292.49 1086.97 293.12 1088.97 293.82C1091.03 294.473 1092.66 295.477 1093.87 296.83C1095.09 298.137 1095.69 300.027 1095.69 302.5C1095.74 304.647 1095.18 306.583 1094.01 308.31C1092.85 310.037 1091.17 311.39 1088.97 312.37C1086.78 313.35 1084.19 313.84 1081.2 313.84ZM1118.01 313C1114.37 313 1111.45 312.113 1109.26 310.34C1107.06 308.567 1105.97 305.417 1105.97 300.89V285.77H1100.02V278.28H1105.97L1107.02 268.97H1114.93V278.28H1124.31V285.77H1114.93V300.96C1114.93 302.64 1115.28 303.807 1115.98 304.46C1116.72 305.067 1117.98 305.37 1119.76 305.37H1124.1V313H1118.01ZM1146.35 313.84C1143.27 313.84 1140.56 313.35 1138.23 312.37C1135.9 311.343 1134.03 309.943 1132.63 308.17C1131.23 306.397 1130.39 304.343 1130.11 302.01H1139.14C1139.42 303.363 1140.17 304.53 1141.38 305.51C1142.64 306.443 1144.25 306.91 1146.21 306.91C1148.17 306.91 1149.59 306.513 1150.48 305.72C1151.41 304.927 1151.88 304.017 1151.88 302.99C1151.88 301.497 1151.23 300.493 1149.92 299.98C1148.61 299.42 1146.79 298.883 1144.46 298.37C1142.97 298.043 1141.45 297.647 1139.91 297.18C1138.37 296.713 1136.95 296.13 1135.64 295.43C1134.38 294.683 1133.35 293.75 1132.56 292.63C1131.77 291.463 1131.37 290.04 1131.37 288.36C1131.37 285.28 1132.58 282.69 1135.01 280.59C1137.48 278.49 1140.94 277.44 1145.37 277.44C1149.48 277.44 1152.74 278.397 1155.17 280.31C1157.64 282.223 1159.11 284.86 1159.58 288.22H1151.11C1150.6 285.653 1148.66 284.37 1145.3 284.37C1143.62 284.37 1142.31 284.697 1141.38 285.35C1140.49 286.003 1140.05 286.82 1140.05 287.8C1140.05 288.827 1140.73 289.643 1142.08 290.25C1143.43 290.857 1145.23 291.417 1147.47 291.93C1149.9 292.49 1152.11 293.12 1154.12 293.82C1156.17 294.473 1157.81 295.477 1159.02 296.83C1160.23 298.137 1160.84 300.027 1160.84 302.5C1160.89 304.647 1160.33 306.583 1159.16 308.31C1157.99 310.037 1156.31 311.39 1154.12 312.37C1151.93 313.35 1149.34 313.84 1146.35 313.84Z" fill="#CCFF00"/>
</g>
<g style="mix-blend-mode:exclusion">
<circle cx="545" cy="290" r="30" fill="#CCFF00"/>
<path fill-rule="evenodd" clip-rule="evenodd" d="M545.583 275.789H558.814V277.027H564.327C564.878 277.165 565.429 277.44 565.429 278.266C565.429 279.19 563.776 288.59 556.058 289.416C555.323 291.343 552.75 295.363 548.34 296.023V300.979C548.34 301.667 548.781 303.044 550.545 303.044H552.199V307.173H546.134H538.968V303.044H541.173C542.496 303.044 542.827 301.667 542.827 300.979V296.023C538.417 296.023 535.844 291.619 535.109 289.416C527.942 289.416 525.737 279.505 525.737 278.266C525.737 277.275 526.472 277.027 526.84 277.027H532.352V275.789H545.583ZM558.262 279.092H562.673C561.791 283.717 558.262 286.525 556.609 287.351C557.491 286.69 558.079 281.57 558.262 279.092ZM528.494 279.093H532.904C532.904 281.295 533.235 286.031 534.558 287.352C532.72 286.664 528.935 284.048 528.494 279.093Z" fill="black"/>
</g>
</g>
<defs>
<clipPath id="clip0_337_19">
<rect width="1680" height="400" fill="white"/>
</clipPath>
</defs>
</svg>
