<svg width="1680" height="400" viewBox="0 0 1680 400" fill="none" xmlns="http://www.w3.org/2000/svg">
<g clip-path="url(#clip0_337_19)">
<rect width="1680" height="400" fill="white"/>
<path d="M1680 1050H0V0H1680V1050Z" fill="#121212"/>
<path d="M486.49 290.84C482.897 290.84 479.723 290.233 476.97 289.02C474.217 287.76 472.047 285.987 470.46 283.7C468.873 281.367 468.057 278.543 468.01 275.23H477.46C477.553 277.517 478.37 279.453 479.91 281.04C481.497 282.58 483.667 283.35 486.42 283.35C488.8 283.35 490.69 282.79 492.09 281.67C493.49 280.503 494.19 278.963 494.19 277.05C494.19 275.043 493.56 273.48 492.3 272.36C491.087 271.24 489.453 270.33 487.4 269.63C485.347 268.93 483.153 268.183 480.82 267.39C477.04 266.083 474.147 264.403 472.14 262.35C470.18 260.297 469.2 257.567 469.2 254.16C469.153 251.267 469.83 248.793 471.23 246.74C472.677 244.64 474.637 243.03 477.11 241.91C479.583 240.743 482.43 240.16 485.65 240.16C488.917 240.16 491.787 240.743 494.26 241.91C496.78 243.077 498.74 244.71 500.14 246.81C501.587 248.91 502.357 251.407 502.45 254.3H492.86C492.813 252.573 492.137 251.057 490.83 249.75C489.57 248.397 487.797 247.72 485.51 247.72C483.55 247.673 481.893 248.163 480.54 249.19C479.233 250.17 478.58 251.617 478.58 253.53C478.58 255.163 479.093 256.47 480.12 257.45C481.147 258.383 482.547 259.177 484.32 259.83C486.093 260.483 488.123 261.183 490.41 261.93C492.837 262.77 495.053 263.75 497.06 264.87C499.067 265.99 500.677 267.483 501.89 269.35C503.103 271.17 503.71 273.527 503.71 276.42C503.71 278.987 503.057 281.367 501.75 283.56C500.443 285.753 498.507 287.527 495.94 288.88C493.373 290.187 490.223 290.84 486.49 290.84ZM511.318 305.4V255.28H519.298L520.278 260.25C521.398 258.71 522.868 257.357 524.688 256.19C526.554 255.023 528.958 254.44 531.898 254.44C535.164 254.44 538.081 255.233 540.648 256.82C543.214 258.407 545.244 260.577 546.738 263.33C548.231 266.083 548.978 269.21 548.978 272.71C548.978 276.21 548.231 279.337 546.738 282.09C545.244 284.797 543.214 286.943 540.648 288.53C538.081 290.07 535.164 290.84 531.898 290.84C529.284 290.84 526.998 290.35 525.038 289.37C523.078 288.39 521.491 287.013 520.278 285.24V305.4H511.318ZM530.008 283C532.854 283 535.211 282.043 537.078 280.13C538.944 278.217 539.878 275.743 539.878 272.71C539.878 269.677 538.944 267.18 537.078 265.22C535.211 263.26 532.854 262.28 530.008 262.28C527.114 262.28 524.734 263.26 522.868 265.22C521.048 267.133 520.138 269.607 520.138 272.64C520.138 275.673 521.048 278.17 522.868 280.13C524.734 282.043 527.114 283 530.008 283ZM573.642 290.84C570.282 290.84 567.248 290.07 564.542 288.53C561.882 286.99 559.758 284.867 558.172 282.16C556.632 279.407 555.862 276.233 555.862 272.64C555.862 269.047 556.655 265.897 558.242 263.19C559.828 260.437 561.952 258.29 564.612 256.75C567.318 255.21 570.352 254.44 573.712 254.44C577.025 254.44 580.012 255.21 582.672 256.75C585.378 258.29 587.502 260.437 589.042 263.19C590.628 265.897 591.422 269.047 591.422 272.64C591.422 276.233 590.628 279.407 589.042 282.16C587.502 284.867 585.378 286.99 582.672 288.53C579.965 290.07 576.955 290.84 573.642 290.84ZM573.642 283.07C575.975 283.07 578.005 282.207 579.732 280.48C581.458 278.707 582.322 276.093 582.322 272.64C582.322 269.187 581.458 266.597 579.732 264.87C578.005 263.097 575.998 262.21 573.712 262.21C571.332 262.21 569.278 263.097 567.552 264.87C565.872 266.597 565.032 269.187 565.032 272.64C565.032 276.093 565.872 278.707 567.552 280.48C569.278 282.207 571.308 283.07 573.642 283.07ZM613.536 290C609.896 290 606.979 289.113 604.786 287.34C602.592 285.567 601.496 282.417 601.496 277.89V262.77H595.546V255.28H601.496L602.546 245.97H610.456V255.28H619.836V262.77H610.456V277.96C610.456 279.64 610.806 280.807 611.506 281.46C612.252 282.067 613.512 282.37 615.286 282.37H619.626V290H613.536ZM632.359 249.89C630.725 249.89 629.372 249.4 628.299 248.42C627.272 247.44 626.759 246.203 626.759 244.71C626.759 243.217 627.272 242.003 628.299 241.07C629.372 240.09 630.725 239.6 632.359 239.6C633.992 239.6 635.322 240.09 636.349 241.07C637.422 242.003 637.959 243.217 637.959 244.71C637.959 246.203 637.422 247.44 636.349 248.42C635.322 249.4 633.992 249.89 632.359 249.89ZM627.879 290V255.28H636.839V290H627.879ZM647.801 290V262.77H643.041V255.28H647.801V251.22C647.801 247.02 648.851 244.033 650.951 242.26C653.097 240.487 655.991 239.6 659.631 239.6H663.481V247.23H661.031C659.491 247.23 658.394 247.533 657.741 248.14C657.087 248.747 656.761 249.773 656.761 251.22V255.28H664.251V262.77H656.761V290H647.801ZM675.687 305.4L683.737 287.69H681.637L668.127 255.28H677.857L687.587 279.71L697.737 255.28H707.257L685.207 305.4H675.687ZM752.194 290.84C747.247 290.84 743.001 289.79 739.454 287.69C735.907 285.543 733.177 282.58 731.264 278.8C729.351 274.973 728.394 270.563 728.394 265.57C728.394 260.577 729.351 256.167 731.264 252.34C733.177 248.513 735.907 245.527 739.454 243.38C743.001 241.233 747.247 240.16 752.194 240.16C758.074 240.16 762.881 241.63 766.614 244.57C770.394 247.463 772.751 251.547 773.684 256.82H763.814C763.207 254.16 761.901 252.083 759.894 250.59C757.934 249.05 755.321 248.28 752.054 248.28C747.527 248.28 743.981 249.82 741.414 252.9C738.847 255.98 737.564 260.203 737.564 265.57C737.564 270.937 738.847 275.16 741.414 278.24C743.981 281.273 747.527 282.79 752.054 282.79C755.321 282.79 757.934 282.09 759.894 280.69C761.901 279.243 763.207 277.26 763.814 274.74H773.684C772.751 279.78 770.394 283.723 766.614 286.57C762.881 289.417 758.074 290.84 752.194 290.84ZM798.065 290.84C794.705 290.84 791.672 290.07 788.965 288.53C786.305 286.99 784.182 284.867 782.595 282.16C781.055 279.407 780.285 276.233 780.285 272.64C780.285 269.047 781.079 265.897 782.665 263.19C784.252 260.437 786.375 258.29 789.035 256.75C791.742 255.21 794.775 254.44 798.135 254.44C801.449 254.44 804.435 255.21 807.095 256.75C809.802 258.29 811.925 260.437 813.465 263.19C815.052 265.897 815.845 269.047 815.845 272.64C815.845 276.233 815.052 279.407 813.465 282.16C811.925 284.867 809.802 286.99 807.095 288.53C804.389 290.07 801.379 290.84 798.065 290.84ZM798.065 283.07C800.399 283.07 802.429 282.207 804.155 280.48C805.882 278.707 806.745 276.093 806.745 272.64C806.745 269.187 805.882 266.597 804.155 264.87C802.429 263.097 800.422 262.21 798.135 262.21C795.755 262.21 793.702 263.097 791.975 264.87C790.295 266.597 789.455 269.187 789.455 272.64C789.455 276.093 790.295 278.707 791.975 280.48C793.702 282.207 795.732 283.07 798.065 283.07ZM823.857 290V255.28H831.767L832.467 261.16C833.54 259.107 835.08 257.473 837.087 256.26C839.14 255.047 841.543 254.44 844.297 254.44C848.59 254.44 851.927 255.793 854.307 258.5C856.687 261.207 857.877 265.173 857.877 270.4V290H848.917V271.24C848.917 268.253 848.31 265.967 847.097 264.38C845.883 262.793 843.993 262 841.427 262C838.907 262 836.83 262.887 835.197 264.66C833.61 266.433 832.817 268.907 832.817 272.08V290H823.857ZM881.915 290C878.275 290 875.358 289.113 873.165 287.34C870.971 285.567 869.875 282.417 869.875 277.89V262.77H863.925V255.28H869.875L870.925 245.97H878.835V255.28H888.215V262.77H878.835V277.96C878.835 279.64 879.185 280.807 879.885 281.46C880.631 282.067 881.891 282.37 883.665 282.37H888.005V290H881.915ZM911.889 290.84C908.389 290.84 905.285 290.093 902.579 288.6C899.872 287.107 897.749 285.007 896.209 282.3C894.669 279.593 893.899 276.467 893.899 272.92C893.899 269.327 894.645 266.13 896.139 263.33C897.679 260.53 899.779 258.36 902.439 256.82C905.145 255.233 908.319 254.44 911.959 254.44C915.365 254.44 918.375 255.187 920.989 256.68C923.602 258.173 925.632 260.227 927.079 262.84C928.572 265.407 929.319 268.277 929.319 271.45C929.319 271.963 929.295 272.5 929.249 273.06C929.249 273.62 929.225 274.203 929.179 274.81H902.789C902.975 277.517 903.909 279.64 905.589 281.18C907.315 282.72 909.392 283.49 911.819 283.49C913.639 283.49 915.155 283.093 916.369 282.3C917.629 281.46 918.562 280.387 919.169 279.08H928.269C927.615 281.273 926.519 283.28 924.979 285.1C923.485 286.873 921.619 288.273 919.379 289.3C917.185 290.327 914.689 290.84 911.889 290.84ZM911.959 261.72C909.765 261.72 907.829 262.35 906.149 263.61C904.469 264.823 903.395 266.69 902.929 269.21H920.219C920.079 266.923 919.239 265.103 917.699 263.75C916.159 262.397 914.245 261.72 911.959 261.72ZM951.205 290.84C948.125 290.84 945.418 290.35 943.085 289.37C940.751 288.343 938.885 286.943 937.485 285.17C936.085 283.397 935.245 281.343 934.965 279.01H943.995C944.275 280.363 945.021 281.53 946.235 282.51C947.495 283.443 949.105 283.91 951.065 283.91C953.025 283.91 954.448 283.513 955.335 282.72C956.268 281.927 956.735 281.017 956.735 279.99C956.735 278.497 956.081 277.493 954.775 276.98C953.468 276.42 951.648 275.883 949.315 275.37C947.821 275.043 946.305 274.647 944.765 274.18C943.225 273.713 941.801 273.13 940.495 272.43C939.235 271.683 938.208 270.75 937.415 269.63C936.621 268.463 936.225 267.04 936.225 265.36C936.225 262.28 937.438 259.69 939.865 257.59C942.338 255.49 945.791 254.44 950.225 254.44C954.331 254.44 957.598 255.397 960.025 257.31C962.498 259.223 963.968 261.86 964.435 265.22H955.965C955.451 262.653 953.515 261.37 950.155 261.37C948.475 261.37 947.168 261.697 946.235 262.35C945.348 263.003 944.905 263.82 944.905 264.8C944.905 265.827 945.581 266.643 946.935 267.25C948.288 267.857 950.085 268.417 952.325 268.93C954.751 269.49 956.968 270.12 958.975 270.82C961.028 271.473 962.661 272.477 963.875 273.83C965.088 275.137 965.695 277.027 965.695 279.5C965.741 281.647 965.181 283.583 964.015 285.31C962.848 287.037 961.168 288.39 958.975 289.37C956.781 290.35 954.191 290.84 951.205 290.84ZM988.008 290C984.368 290 981.452 289.113 979.258 287.34C977.065 285.567 975.968 282.417 975.968 277.89V262.77H970.018V255.28H975.968L977.018 245.97H984.928V255.28H994.308V262.77H984.928V277.96C984.928 279.64 985.278 280.807 985.978 281.46C986.725 282.067 987.985 282.37 989.758 282.37H994.098V290H988.008ZM1016.35 290.84C1013.27 290.84 1010.56 290.35 1008.23 289.37C1005.9 288.343 1004.03 286.943 1002.63 285.17C1001.23 283.397 1000.39 281.343 1000.11 279.01H1009.14C1009.42 280.363 1010.17 281.53 1011.38 282.51C1012.64 283.443 1014.25 283.91 1016.21 283.91C1018.17 283.91 1019.59 283.513 1020.48 282.72C1021.41 281.927 1021.88 281.017 1021.88 279.99C1021.88 278.497 1021.23 277.493 1019.92 276.98C1018.61 276.42 1016.79 275.883 1014.46 275.37C1012.97 275.043 1011.45 274.647 1009.91 274.18C1008.37 273.713 1006.95 273.13 1005.64 272.43C1004.38 271.683 1003.35 270.75 1002.56 269.63C1001.77 268.463 1001.37 267.04 1001.37 265.36C1001.37 262.28 1002.58 259.69 1005.01 257.59C1007.48 255.49 1010.94 254.44 1015.37 254.44C1019.48 254.44 1022.74 255.397 1025.17 257.31C1027.64 259.223 1029.11 261.86 1029.58 265.22H1021.11C1020.6 262.653 1018.66 261.37 1015.3 261.37C1013.62 261.37 1012.31 261.697 1011.38 262.35C1010.49 263.003 1010.05 263.82 1010.05 264.8C1010.05 265.827 1010.73 266.643 1012.08 267.25C1013.43 267.857 1015.23 268.417 1017.47 268.93C1019.9 269.49 1022.11 270.12 1024.12 270.82C1026.17 271.473 1027.81 272.477 1029.02 273.83C1030.23 275.137 1030.84 277.027 1030.84 279.5C1030.89 281.647 1030.33 283.583 1029.16 285.31C1027.99 287.037 1026.31 288.39 1024.12 289.37C1021.93 290.35 1019.34 290.84 1016.35 290.84Z" fill="#73E499"/>
<circle cx="415" cy="267" r="30" fill="#73E499"/>
<path fill-rule="evenodd" clip-rule="evenodd" d="M415.583 252.789H428.814V254.027H434.327C434.878 254.165 435.429 254.44 435.429 255.266C435.429 256.19 433.776 265.59 426.058 266.416C425.323 268.343 422.75 272.363 418.34 273.023V277.979C418.34 278.667 418.781 280.044 420.545 280.044H422.199V284.173H416.134H408.968V280.044H411.173C412.496 280.044 412.827 278.667 412.827 277.979V273.023C408.417 273.023 405.844 268.619 405.109 266.416C397.942 266.416 395.737 256.505 395.737 255.266C395.737 254.275 396.472 254.027 396.84 254.027H402.352V252.789H415.583ZM428.262 256.092H432.673C431.791 260.717 428.262 263.525 426.609 264.351C427.491 263.69 428.079 258.57 428.262 256.092ZM398.494 256.093H402.904C402.904 258.295 403.235 263.031 404.558 264.352C402.72 263.664 398.935 261.048 398.494 256.093Z" fill="#121212"/>
<g style="mix-blend-mode:lighten">
<path d="M-462 270L-443.924 280.556C-425.847 291.111 -389.694 312.222 -353.542 318.556C-317.389 324.889 -281.236 316.444 -245.083 322.778C-208.931 329.111 -172.778 350.222 -136.625 352.333C-100.472 354.444 -64.3194 337.556 -28.1666 337.556C7.98616 337.556 44.1389 354.444 80.2917 350.222C116.444 346 152.597 320.667 188.75 308C224.903 295.333 261.056 295.333 297.208 299.556C333.361 303.778 369.514 312.222 405.667 320.667C441.82 329.111 477.972 337.556 514.125 333.333C550.278 329.111 586.431 312.222 622.583 305.889C658.736 299.556 694.889 303.778 731.042 305.889C767.194 308 803.347 308 839.5 314.333C875.653 320.667 911.806 333.333 947.959 327C984.111 320.667 1020.26 295.333 1056.42 282.667C1092.57 270 1128.72 270 1164.88 276.333C1201.03 282.667 1237.18 295.333 1273.33 295.333C1309.49 295.333 1345.64 282.667 1381.79 282.667C1417.94 282.667 1454.1 295.333 1490.25 312.222C1526.4 329.111 1562.56 350.222 1598.71 341.778C1634.86 333.333 1671.01 295.333 1707.17 286.889C1743.32 278.444 1779.47 299.556 1815.63 316.444C1851.78 333.333 1887.93 346 1924.08 350.222C1960.24 354.444 1996.39 350.222 2032.54 335.444C2068.69 320.667 2104.85 295.333 2122.92 282.667L2141 270V384H2122.92C2104.85 384 2068.69 384 2032.54 384C1996.39 384 1960.24 384 1924.08 384C1887.93 384 1851.78 384 1815.63 384C1779.47 384 1743.32 384 1707.17 384C1671.01 384 1634.86 384 1598.71 384C1562.56 384 1526.4 384 1490.25 384C1454.1 384 1417.94 384 1381.79 384C1345.64 384 1309.49 384 1273.33 384C1237.18 384 1201.03 384 1164.88 384C1128.72 384 1092.57 384 1056.42 384C1020.26 384 984.111 384 947.959 384C911.806 384 875.653 384 839.5 384C803.347 384 767.194 384 731.042 384C694.889 384 658.736 384 622.583 384C586.431 384 550.278 384 514.125 384C477.972 384 441.82 384 405.667 384C369.514 384 333.361 384 297.208 384C261.056 384 224.903 384 188.75 384C152.597 384 116.444 384 80.2917 384C44.1389 384 7.98616 384 -28.1666 384C-64.3194 384 -100.472 384 -136.625 384C-172.778 384 -208.931 384 -245.083 384C-281.236 384 -317.389 384 -353.542 384C-389.694 384 -425.847 384 -443.924 384H-462V270Z" fill="#73E499"/>
</g>
<rect x="-22" y="339" width="1723" height="121" fill="#73E499"/>
</g>
<defs>
<clipPath id="clip0_337_19">
<rect width="1680" height="400" fill="white"/>
</clipPath>
</defs>
</svg>
