<svg width="1680" height="200" viewBox="0 0 1680 200" fill="none" xmlns="http://www.w3.org/2000/svg">
<g clip-path="url(#clip0_337_19)">
<rect width="1680" height="200" fill="white"/>
<path d="M1680 1050H0V0H1680V1050Z" fill="#FF9C9C"/>
<path d="M-462 69L-443.924 81.2222C-425.847 93.4444 -389.694 117.889 -353.542 125.222C-317.389 132.556 -281.236 122.778 -245.083 130.111C-208.931 137.444 -172.778 161.889 -136.625 164.333C-100.472 166.778 -64.3194 147.222 -28.1666 147.222C7.98616 147.222 44.1389 166.778 80.2917 161.889C116.444 157 152.597 127.667 188.75 113C224.903 98.3333 261.056 98.3333 297.208 103.222C333.361 108.111 369.514 117.889 405.667 127.667C441.82 137.444 477.972 147.222 514.125 142.333C550.278 137.444 586.431 117.889 622.583 110.556C658.736 103.222 694.889 108.111 731.042 110.556C767.194 113 803.347 113 839.5 120.333C875.653 127.667 911.806 142.333 947.959 135C984.111 127.667 1020.26 98.3333 1056.42 83.6667C1092.57 69 1128.72 69 1164.88 76.3333C1201.03 83.6667 1237.18 98.3333 1273.33 98.3333C1309.49 98.3333 1345.64 83.6667 1381.79 83.6667C1417.94 83.6667 1454.1 98.3333 1490.25 117.889C1526.4 137.444 1562.56 161.889 1598.71 152.111C1634.86 142.333 1671.01 98.3333 1707.17 88.5556C1743.32 78.7778 1779.47 103.222 1815.63 122.778C1851.78 142.333 1887.93 157 1924.08 161.889C1960.24 166.778 1996.39 161.889 2032.54 144.778C2068.69 127.667 2104.85 98.3333 2122.92 83.6667L2141 69V201H2122.92C2104.85 201 2068.69 201 2032.54 201C1996.39 201 1960.24 201 1924.08 201C1887.93 201 1851.78 201 1815.63 201C1779.47 201 1743.32 201 1707.17 201C1671.01 201 1634.86 201 1598.71 201C1562.56 201 1526.4 201 1490.25 201C1454.1 201 1417.94 201 1381.79 201C1345.64 201 1309.49 201 1273.33 201C1237.18 201 1201.03 201 1164.88 201C1128.72 201 1092.57 201 1056.42 201C1020.26 201 984.111 201 947.959 201C911.806 201 875.653 201 839.5 201C803.347 201 767.194 201 731.042 201C694.889 201 658.736 201 622.583 201C586.431 201 550.278 201 514.125 201C477.972 201 441.82 201 405.667 201C369.514 201 333.361 201 297.208 201C261.056 201 224.903 201 188.75 201C152.597 201 116.444 201 80.2917 201C44.1389 201 7.98616 201 -28.1666 201C-64.3194 201 -100.472 201 -136.625 201C-172.778 201 -208.931 201 -245.083 201C-281.236 201 -317.389 201 -353.542 201C-389.694 201 -425.847 201 -443.924 201H-462V69Z" fill="#73E499"/>
<g style="mix-blend-mode:exclusion">
<path d="M616.49 138.84C612.897 138.84 609.723 138.233 606.97 137.02C604.217 135.76 602.047 133.987 600.46 131.7C598.873 129.367 598.057 126.543 598.01 123.23H607.46C607.553 125.517 608.37 127.453 609.91 129.04C611.497 130.58 613.667 131.35 616.42 131.35C618.8 131.35 620.69 130.79 622.09 129.67C623.49 128.503 624.19 126.963 624.19 125.05C624.19 123.043 623.56 121.48 622.3 120.36C621.087 119.24 619.453 118.33 617.4 117.63C615.347 116.93 613.153 116.183 610.82 115.39C607.04 114.083 604.147 112.403 602.14 110.35C600.18 108.297 599.2 105.567 599.2 102.16C599.153 99.2667 599.83 96.7933 601.23 94.74C602.677 92.64 604.637 91.03 607.11 89.91C609.583 88.7433 612.43 88.16 615.65 88.16C618.917 88.16 621.787 88.7433 624.26 89.91C626.78 91.0767 628.74 92.71 630.14 94.81C631.587 96.91 632.357 99.4067 632.45 102.3H622.86C622.813 100.573 622.137 99.0567 620.83 97.75C619.57 96.3967 617.797 95.72 615.51 95.72C613.55 95.6733 611.893 96.1633 610.54 97.19C609.233 98.17 608.58 99.6167 608.58 101.53C608.58 103.163 609.093 104.47 610.12 105.45C611.147 106.383 612.547 107.177 614.32 107.83C616.093 108.483 618.123 109.183 620.41 109.93C622.837 110.77 625.053 111.75 627.06 112.87C629.067 113.99 630.677 115.483 631.89 117.35C633.103 119.17 633.71 121.527 633.71 124.42C633.71 126.987 633.057 129.367 631.75 131.56C630.443 133.753 628.507 135.527 625.94 136.88C623.373 138.187 620.223 138.84 616.49 138.84ZM641.318 153.4V103.28H649.298L650.278 108.25C651.398 106.71 652.868 105.357 654.688 104.19C656.554 103.023 658.958 102.44 661.898 102.44C665.164 102.44 668.081 103.233 670.648 104.82C673.214 106.407 675.244 108.577 676.738 111.33C678.231 114.083 678.978 117.21 678.978 120.71C678.978 124.21 678.231 127.337 676.738 130.09C675.244 132.797 673.214 134.943 670.648 136.53C668.081 138.07 665.164 138.84 661.898 138.84C659.284 138.84 656.998 138.35 655.038 137.37C653.078 136.39 651.491 135.013 650.278 133.24V153.4H641.318ZM660.008 131C662.854 131 665.211 130.043 667.078 128.13C668.944 126.217 669.878 123.743 669.878 120.71C669.878 117.677 668.944 115.18 667.078 113.22C665.211 111.26 662.854 110.28 660.008 110.28C657.114 110.28 654.734 111.26 652.868 113.22C651.048 115.133 650.138 117.607 650.138 120.64C650.138 123.673 651.048 126.17 652.868 128.13C654.734 130.043 657.114 131 660.008 131ZM703.642 138.84C700.282 138.84 697.248 138.07 694.542 136.53C691.882 134.99 689.758 132.867 688.172 130.16C686.632 127.407 685.862 124.233 685.862 120.64C685.862 117.047 686.655 113.897 688.242 111.19C689.828 108.437 691.952 106.29 694.612 104.75C697.318 103.21 700.352 102.44 703.712 102.44C707.025 102.44 710.012 103.21 712.672 104.75C715.378 106.29 717.502 108.437 719.042 111.19C720.628 113.897 721.422 117.047 721.422 120.64C721.422 124.233 720.628 127.407 719.042 130.16C717.502 132.867 715.378 134.99 712.672 136.53C709.965 138.07 706.955 138.84 703.642 138.84ZM703.642 131.07C705.975 131.07 708.005 130.207 709.732 128.48C711.458 126.707 712.322 124.093 712.322 120.64C712.322 117.187 711.458 114.597 709.732 112.87C708.005 111.097 705.998 110.21 703.712 110.21C701.332 110.21 699.278 111.097 697.552 112.87C695.872 114.597 695.032 117.187 695.032 120.64C695.032 124.093 695.872 126.707 697.552 128.48C699.278 130.207 701.308 131.07 703.642 131.07ZM743.536 138C739.896 138 736.979 137.113 734.786 135.34C732.592 133.567 731.496 130.417 731.496 125.89V110.77H725.546V103.28H731.496L732.546 93.97H740.456V103.28H749.836V110.77H740.456V125.96C740.456 127.64 740.806 128.807 741.506 129.46C742.252 130.067 743.512 130.37 745.286 130.37H749.626V138H743.536ZM762.359 97.89C760.725 97.89 759.372 97.4 758.299 96.42C757.272 95.44 756.759 94.2033 756.759 92.71C756.759 91.2167 757.272 90.0033 758.299 89.07C759.372 88.09 760.725 87.6 762.359 87.6C763.992 87.6 765.322 88.09 766.349 89.07C767.422 90.0033 767.959 91.2167 767.959 92.71C767.959 94.2033 767.422 95.44 766.349 96.42C765.322 97.4 763.992 97.89 762.359 97.89ZM757.879 138V103.28H766.839V138H757.879ZM777.801 138V110.77H773.041V103.28H777.801V99.22C777.801 95.02 778.851 92.0333 780.951 90.26C783.097 88.4867 785.991 87.6 789.631 87.6H793.481V95.23H791.031C789.491 95.23 788.394 95.5333 787.741 96.14C787.087 96.7467 786.761 97.7733 786.761 99.22V103.28H794.251V110.77H786.761V138H777.801ZM805.687 153.4L813.737 135.69H811.637L798.127 103.28H807.857L817.587 127.71L827.737 103.28H837.257L815.207 153.4H805.687ZM882.194 138.84C877.247 138.84 873.001 137.79 869.454 135.69C865.907 133.543 863.177 130.58 861.264 126.8C859.351 122.973 858.394 118.563 858.394 113.57C858.394 108.577 859.351 104.167 861.264 100.34C863.177 96.5133 865.907 93.5267 869.454 91.38C873.001 89.2333 877.247 88.16 882.194 88.16C888.074 88.16 892.881 89.63 896.614 92.57C900.394 95.4633 902.751 99.5467 903.684 104.82H893.814C893.207 102.16 891.901 100.083 889.894 98.59C887.934 97.05 885.321 96.28 882.054 96.28C877.527 96.28 873.981 97.82 871.414 100.9C868.847 103.98 867.564 108.203 867.564 113.57C867.564 118.937 868.847 123.16 871.414 126.24C873.981 129.273 877.527 130.79 882.054 130.79C885.321 130.79 887.934 130.09 889.894 128.69C891.901 127.243 893.207 125.26 893.814 122.74H903.684C902.751 127.78 900.394 131.723 896.614 134.57C892.881 137.417 888.074 138.84 882.194 138.84ZM928.065 138.84C924.705 138.84 921.672 138.07 918.965 136.53C916.305 134.99 914.182 132.867 912.595 130.16C911.055 127.407 910.285 124.233 910.285 120.64C910.285 117.047 911.079 113.897 912.665 111.19C914.252 108.437 916.375 106.29 919.035 104.75C921.742 103.21 924.775 102.44 928.135 102.44C931.449 102.44 934.435 103.21 937.095 104.75C939.802 106.29 941.925 108.437 943.465 111.19C945.052 113.897 945.845 117.047 945.845 120.64C945.845 124.233 945.052 127.407 943.465 130.16C941.925 132.867 939.802 134.99 937.095 136.53C934.389 138.07 931.379 138.84 928.065 138.84ZM928.065 131.07C930.399 131.07 932.429 130.207 934.155 128.48C935.882 126.707 936.745 124.093 936.745 120.64C936.745 117.187 935.882 114.597 934.155 112.87C932.429 111.097 930.422 110.21 928.135 110.21C925.755 110.21 923.702 111.097 921.975 112.87C920.295 114.597 919.455 117.187 919.455 120.64C919.455 124.093 920.295 126.707 921.975 128.48C923.702 130.207 925.732 131.07 928.065 131.07ZM953.857 138V103.28H961.767L962.467 109.16C963.54 107.107 965.08 105.473 967.087 104.26C969.14 103.047 971.543 102.44 974.297 102.44C978.59 102.44 981.927 103.793 984.307 106.5C986.687 109.207 987.877 113.173 987.877 118.4V138H978.917V119.24C978.917 116.253 978.31 113.967 977.097 112.38C975.883 110.793 973.993 110 971.427 110C968.907 110 966.83 110.887 965.197 112.66C963.61 114.433 962.817 116.907 962.817 120.08V138H953.857ZM1011.91 138C1008.27 138 1005.36 137.113 1003.16 135.34C1000.97 133.567 999.875 130.417 999.875 125.89V110.77H993.925V103.28H999.875L1000.92 93.97H1008.83V103.28H1018.21V110.77H1008.83V125.96C1008.83 127.64 1009.18 128.807 1009.88 129.46C1010.63 130.067 1011.89 130.37 1013.66 130.37H1018V138H1011.91ZM1041.89 138.84C1038.39 138.84 1035.29 138.093 1032.58 136.6C1029.87 135.107 1027.75 133.007 1026.21 130.3C1024.67 127.593 1023.9 124.467 1023.9 120.92C1023.9 117.327 1024.65 114.13 1026.14 111.33C1027.68 108.53 1029.78 106.36 1032.44 104.82C1035.15 103.233 1038.32 102.44 1041.96 102.44C1045.37 102.44 1048.38 103.187 1050.99 104.68C1053.6 106.173 1055.63 108.227 1057.08 110.84C1058.57 113.407 1059.32 116.277 1059.32 119.45C1059.32 119.963 1059.3 120.5 1059.25 121.06C1059.25 121.62 1059.23 122.203 1059.18 122.81H1032.79C1032.98 125.517 1033.91 127.64 1035.59 129.18C1037.32 130.72 1039.39 131.49 1041.82 131.49C1043.64 131.49 1045.16 131.093 1046.37 130.3C1047.63 129.46 1048.56 128.387 1049.17 127.08H1058.27C1057.62 129.273 1056.52 131.28 1054.98 133.1C1053.49 134.873 1051.62 136.273 1049.38 137.3C1047.19 138.327 1044.69 138.84 1041.89 138.84ZM1041.96 109.72C1039.77 109.72 1037.83 110.35 1036.15 111.61C1034.47 112.823 1033.4 114.69 1032.93 117.21H1050.22C1050.08 114.923 1049.24 113.103 1047.7 111.75C1046.16 110.397 1044.25 109.72 1041.96 109.72ZM1081.2 138.84C1078.12 138.84 1075.42 138.35 1073.08 137.37C1070.75 136.343 1068.88 134.943 1067.48 133.17C1066.08 131.397 1065.24 129.343 1064.96 127.01H1073.99C1074.27 128.363 1075.02 129.53 1076.23 130.51C1077.49 131.443 1079.1 131.91 1081.06 131.91C1083.02 131.91 1084.45 131.513 1085.33 130.72C1086.27 129.927 1086.73 129.017 1086.73 127.99C1086.73 126.497 1086.08 125.493 1084.77 124.98C1083.47 124.42 1081.65 123.883 1079.31 123.37C1077.82 123.043 1076.3 122.647 1074.76 122.18C1073.22 121.713 1071.8 121.13 1070.49 120.43C1069.23 119.683 1068.21 118.75 1067.41 117.63C1066.62 116.463 1066.22 115.04 1066.22 113.36C1066.22 110.28 1067.44 107.69 1069.86 105.59C1072.34 103.49 1075.79 102.44 1080.22 102.44C1084.33 102.44 1087.6 103.397 1090.02 105.31C1092.5 107.223 1093.97 109.86 1094.43 113.22H1085.96C1085.45 110.653 1083.51 109.37 1080.15 109.37C1078.47 109.37 1077.17 109.697 1076.23 110.35C1075.35 111.003 1074.9 111.82 1074.9 112.8C1074.9 113.827 1075.58 114.643 1076.93 115.25C1078.29 115.857 1080.08 116.417 1082.32 116.93C1084.75 117.49 1086.97 118.12 1088.97 118.82C1091.03 119.473 1092.66 120.477 1093.87 121.83C1095.09 123.137 1095.69 125.027 1095.69 127.5C1095.74 129.647 1095.18 131.583 1094.01 133.31C1092.85 135.037 1091.17 136.39 1088.97 137.37C1086.78 138.35 1084.19 138.84 1081.2 138.84ZM1118.01 138C1114.37 138 1111.45 137.113 1109.26 135.34C1107.06 133.567 1105.97 130.417 1105.97 125.89V110.77H1100.02V103.28H1105.97L1107.02 93.97H1114.93V103.28H1124.31V110.77H1114.93V125.96C1114.93 127.64 1115.28 128.807 1115.98 129.46C1116.72 130.067 1117.98 130.37 1119.76 130.37H1124.1V138H1118.01ZM1146.35 138.84C1143.27 138.84 1140.56 138.35 1138.23 137.37C1135.9 136.343 1134.03 134.943 1132.63 133.17C1131.23 131.397 1130.39 129.343 1130.11 127.01H1139.14C1139.42 128.363 1140.17 129.53 1141.38 130.51C1142.64 131.443 1144.25 131.91 1146.21 131.91C1148.17 131.91 1149.59 131.513 1150.48 130.72C1151.41 129.927 1151.88 129.017 1151.88 127.99C1151.88 126.497 1151.23 125.493 1149.92 124.98C1148.61 124.42 1146.79 123.883 1144.46 123.37C1142.97 123.043 1141.45 122.647 1139.91 122.18C1138.37 121.713 1136.95 121.13 1135.64 120.43C1134.38 119.683 1133.35 118.75 1132.56 117.63C1131.77 116.463 1131.37 115.04 1131.37 113.36C1131.37 110.28 1132.58 107.69 1135.01 105.59C1137.48 103.49 1140.94 102.44 1145.37 102.44C1149.48 102.44 1152.74 103.397 1155.17 105.31C1157.64 107.223 1159.11 109.86 1159.58 113.22H1151.11C1150.6 110.653 1148.66 109.37 1145.3 109.37C1143.62 109.37 1142.31 109.697 1141.38 110.35C1140.49 111.003 1140.05 111.82 1140.05 112.8C1140.05 113.827 1140.73 114.643 1142.08 115.25C1143.43 115.857 1145.23 116.417 1147.47 116.93C1149.9 117.49 1152.11 118.12 1154.12 118.82C1156.17 119.473 1157.81 120.477 1159.02 121.83C1160.23 123.137 1160.84 125.027 1160.84 127.5C1160.89 129.647 1160.33 131.583 1159.16 133.31C1157.99 135.037 1156.31 136.39 1154.12 137.37C1151.93 138.35 1149.34 138.84 1146.35 138.84Z" fill="#CCFF00"/>
</g>
<g style="mix-blend-mode:exclusion">
<circle cx="545" cy="115" r="30" fill="#CCFF00"/>
<path fill-rule="evenodd" clip-rule="evenodd" d="M545.583 100.789H558.814V102.027H564.327C564.878 102.165 565.429 102.44 565.429 103.266C565.429 104.19 563.776 113.59 556.058 114.416C555.323 116.343 552.75 120.363 548.34 121.023V125.979C548.34 126.667 548.781 128.044 550.545 128.044H552.199V132.173H546.134H538.968V128.044H541.173C542.496 128.044 542.827 126.667 542.827 125.979V121.023C538.417 121.023 535.844 116.619 535.109 114.416C527.942 114.416 525.737 104.505 525.737 103.266C525.737 102.275 526.472 102.027 526.84 102.027H532.352V100.789H545.583ZM558.262 104.092H562.673C561.791 108.717 558.262 111.525 556.609 112.351C557.491 111.69 558.079 106.57 558.262 104.092ZM528.494 104.093H532.904C532.904 106.295 533.235 111.031 534.558 112.352C532.72 111.664 528.935 109.048 528.494 104.093Z" fill="black"/>
</g>
</g>
<defs>
<clipPath id="clip0_337_19">
<rect width="1680" height="200" fill="white"/>
</clipPath>
</defs>
</svg>
