<svg xmlns="http://www.w3.org/2000/svg"  viewBox="0 0 48 48" width="480px" height="480px"><path fill="#37474f" d="M9,40V8c0-2.2,1.8-4,4-4h16c2.2,0,4,1.8,4,4v32c0,2.2-1.8,4-4,4H13C10.8,44,9,42.2,9,40z"/><path fill="#bbdefb" d="M29,7H13c-0.6,0-1,0.4-1,1v29c0,0.6,0.4,1,1,1h16c0.6,0,1-0.4,1-1V8C30,7.4,29.6,7,29,7z"/><path fill="#78909c" d="M18,40h6v2h-6V40z"/><path fill="#ff4081" d="M42,11H24c-1.105,0-2,0.895-2,2v18l6-4h14c1.105,0,2-0.895,2-2V13C44,11.895,43.105,11,42,11z"/><path fill="#f8bbd0" d="M30.5,14.872c-1.381,0-2.5,1.119-2.5,2.5c0,1.381,1.119,2.5,2.5,2.5s2.5-1.119,2.5-2.5	C33,15.992,31.881,14.872,30.5,14.872z"/><path fill="#f8bbd0" d="M35.5,14.872c-1.381,0-2.5,1.119-2.5,2.5c0,1.381,1.119,2.5,2.5,2.5s2.5-1.119,2.5-2.5	C38,15.992,36.881,14.872,35.5,14.872z"/><path fill="#f8bbd0" d="M33,23.128l4.268-3.987l-4.228-1.768l-4.316,1.759L33,23.128z"/></svg>