<svg xmlns="http://www.w3.org/2000/svg"  viewBox="0 0 45 58.02" width="376px" height="376px"><path fill="#fbce9d" d="M22,0.02c0,0-14-1-20,11c0,0-2,5,0,9l-2,9c0,0,0,4,4,4v8c0,0,1,7,11,2c0,0,0.907,4.958,0.992,9.63 l20.061-4.63c0.531-8.539,5.947-18,5.947-18c3-5,3-13,3-13C45,0.02,22,0.02,22,0.02z"/><circle cx="23" cy="20.02" r="12" fill="#fff"/><path fill="#dd352e" d="M38,58.02H14c-0.552,0-1-0.448-1-1v-4.204c0-0.466,0.321-0.87,0.775-0.974l24-5.538 C38.402,46.158,39,46.634,39,47.277v9.743C39,57.573,38.552,58.02,38,58.02z"/><path fill="#c6e2f7" d="M23,20.02L23,20.02c-1.657,0-3-1.343-3-3v-4h6v4C26,18.677,24.657,20.02,23,20.02z"/><path fill="#7383bf" d="M28,14.02H18c-0.552,0-1-0.448-1-1s0.448-1,1-1h10c0.552,0,1,0.448,1,1S28.552,14.02,28,14.02z"/><path fill="#c6e2f7" d="M23,20.02L23,20.02c1.657,0,3,1.343,3,3v4h-6v-4C20,21.364,21.343,20.02,23,20.02z"/><path fill="#7383bf" d="M28,28.02H18c-0.552,0-1-0.448-1-1s0.448-1,1-1h10c0.552,0,1,0.448,1,1S28.552,28.02,28,28.02z"/></svg>